<svg id="edwbUkqD7C61" xmlns="http://www.w3.org/2000/svg" xmlns:xlink="http://www.w3.org/1999/xlink" viewBox="0 0 1920 1080" shape-rendering="geometricPrecision" text-rendering="geometricPrecision" project-id="f15d5489c7fb437b929011a101e51531" export-id="00be33f10bb44e53bec27962783fcb70" cached="false"><path d="M382.546947,-96.416935c-29.09099,33.552238-82.045909,78.323148-96.605542,93.994582C249.676321,36.612002,69.231674,160.762685,134.63414,293.921677c40.580777,82.622195,41.550846,82.085652,90.588549,140.948406c75.078999,90.121608,67.246118,127.669038,20.630961,183.934807-32.697141,39.466343-75.31868,69.56238-111.21951,100.97561-88.88948,77.77829-168.94435,180.07441-146.34146,304.39024c3.18464,17.51552,6.42839,44.22326,17.56098,58.53659c20.38685,26.21166,155.80959,42.3015,191.70732,35.12195c19.18293-3.83658,44.654676-14.638082,61.46341-24.87805c85.896956-52.328873,79.78966-41.857079,123.522557-68.78049c63.305899-38.973195,193.408354-82.729626,267.502577,11.784264" transform="translate(-23.035596 4.372626)" fill="none" stroke="#4831d4" stroke-width="3.84"/></svg>
